<?xml version="1.0" encoding="UTF-8" standalone="no"?>
<!DOCTYPE svg PUBLIC "-//W3C//DTD SVG 1.1//EN" "http://www.w3.org/Graphics/SVG/1.1/DTD/svg11.dtd">
<svg width="100%" height="100%" viewBox="0 0 490 490" version="1.1" xmlns="http://www.w3.org/2000/svg" xmlns:xlink="http://www.w3.org/1999/xlink" xml:space="preserve" xmlns:serif="http://www.serif.com/" style="fill-rule:evenodd;clip-rule:evenodd;stroke-linejoin:round;stroke-miterlimit:2;">
    <g>
        <g>
            <path d="M480,210L480,280C480,285.5 475.5,290 470,290L434.6,290C429.7,310.5 421.6,329.8 410.8,347.2L435.9,372.3C439.8,376.2 439.8,382.5 435.9,386.4L386.4,435.9C382.5,439.8 376.2,439.8 372.3,435.9L347.2,410.8C329.8,421.6 310.5,429.7 290,434.6L290,470C290,475.5 285.5,480 280,480L210,480C204.5,480 200,475.5 200,470L200,434.6C179.5,429.7 160.2,421.6 142.8,410.8L117.7,435.9C113.8,439.8 107.5,439.8 103.6,435.9L54.1,386.4C50.2,382.5 50.2,376.2 54.1,372.3L79.2,347.2C68.4,329.8 60.3,310.5 55.4,290L20,290C14.5,290 10,285.5 10,280L10,210C10,204.5 14.5,200 20,200L55.4,200C60.3,179.5 68.4,160.2 79.2,142.8L54.1,117.7C50.2,113.8 50.2,107.5 54.1,103.6L103.6,54.1C107.5,50.2 113.8,50.2 117.7,54.1L142.8,79.2C160.2,68.4 179.5,60.3 200,55.4L200,20C200,14.5 204.5,10 210,10L280,10C285.5,10 290,14.5 290,20L290,55.4C310.5,60.3 329.8,68.4 347.2,79.2L372.3,54.1C376.2,50.2 382.5,50.2 386.4,54.1L435.9,103.6C439.8,107.5 439.8,113.8 435.9,117.7L410.8,142.8C421.6,160.2 429.7,179.5 434.6,200L470,200C475.5,200 480,204.5 480,210Z" style="fill:rgb(65,65,65);fill-rule:nonzero;"/>
        </g>
        <g>
            <path d="M245,135C305.8,135 355,184.2 355,245C355,305.8 305.8,355 245,355C184.2,355 135,305.8 135,245C135,184.2 184.2,135 245,135Z" style="fill:white;fill-rule:nonzero;"/>
        </g>
        <g id="XMLID_49_">
            <g>
                <path d="M245,195C272.6,195 295,217.4 295,245C295,272.6 272.6,295 245,295C217.4,295 195,272.6 195,245C195,217.4 217.4,195 245,195Z" style="fill:white;fill-rule:nonzero;"/>
            </g>
            <g>
                <path d="M470,190L442.336,190C437.861,174.011 431.503,158.721 423.364,144.378L442.972,124.771C450.756,116.984 450.756,104.315 442.971,96.529L393.47,47.029C385.685,39.242 373.015,39.244 365.228,47.029L345.622,66.635C331.279,58.497 315.99,52.139 300,47.664L300,20C300,8.972 291.028,0 280,0L210,0C198.972,0 190,8.972 190,20L190,47.664C174.01,52.139 158.72,58.497 144.377,66.636L124.771,47.029C116.984,39.243 104.315,39.244 96.529,47.029L47.029,96.529C39.243,104.315 39.243,116.985 47.029,124.772L66.635,144.378C58.497,158.72 52.139,174.01 47.664,190L20,190C8.972,190 0,198.972 0,210L0,280C0,291.028 8.972,300 20,300L47.664,300C52.139,315.99 58.497,331.28 66.636,345.623L47.029,365.229C39.243,373.016 39.243,385.685 47.029,393.471L96.529,442.971C104.316,450.757 116.985,450.757 124.772,442.971L144.378,423.365C158.721,431.504 174.011,437.862 190.001,442.337L190.001,470C190.001,481.028 198.973,490 210.001,490L280.001,490C291.029,490 300.001,481.028 300.001,470L300.001,442.336C315.991,437.861 331.28,431.503 345.623,423.364L365.23,442.971C373.015,450.758 385.685,450.756 393.472,442.971L442.972,393.471C450.757,385.685 450.757,373.016 442.972,365.229L423.365,345.623C431.504,331.28 437.862,315.99 442.337,300.001L470,300.001C481.028,300.001 490,291.029 490,280.001L490,210.001C490,198.972 481.028,190 470,190ZM470,280L434.6,280C429.972,280 425.95,283.175 424.873,287.675C420.261,306.976 412.667,325.229 402.304,341.926C399.854,345.873 400.445,350.986 403.729,354.271L428.83,379.328L379.372,428.828L354.272,403.728C350.986,400.442 345.873,399.854 341.927,402.302C325.231,412.665 306.978,420.259 287.675,424.873C283.175,425.949 280,429.972 280,434.599L280,470L210,470L210,434.6C210,429.973 206.825,425.95 202.325,424.874C183.023,420.26 164.77,412.666 148.074,402.303C146.446,401.292 144.619,400.8 142.804,400.8C140.22,400.8 137.659,401.8 135.729,403.729L110.672,428.829L61.172,379.371L86.272,354.271C89.557,350.986 90.147,345.873 87.698,341.926C77.335,325.23 69.741,306.977 65.127,287.675C64.05,283.175 60.027,280 55.4,280L20,280L20,210L55.4,210C60.027,210 64.05,206.825 65.126,202.325C69.74,183.023 77.334,164.77 87.697,148.074C90.146,144.128 89.556,139.014 86.271,135.729L61.171,110.672L110.629,61.172L135.729,86.272C139.014,89.557 144.127,90.146 148.074,87.698C164.77,77.335 183.023,69.741 202.325,65.127C206.825,64.051 210,60.028 210,55.401L210,20L280,20L280,55.4C280,60.027 283.175,64.05 287.675,65.126C306.978,69.74 325.231,77.334 341.927,87.697C345.872,90.146 350.986,89.557 354.272,86.271L379.33,61.171L428.83,110.629L403.729,135.729C400.445,139.014 399.854,144.127 402.304,148.074C412.667,164.772 420.261,183.025 424.873,202.325C425.949,206.825 429.972,210 434.6,210L470,210L470,280Z" style="fill:rgb(35,31,32);fill-rule:nonzero;"/>
                <path d="M245,125C178.832,125 125,178.832 125,245C125,311.168 178.832,365 245,365C311.168,365 365,311.168 365,245C365,178.832 311.168,125 245,125ZM245,345C189.86,345 145,300.14 145,245C145,189.86 189.86,145 245,145C300.141,145 345,189.86 345,245C345,300.14 300.141,345 245,345Z" style="fill:rgb(35,31,32);fill-rule:nonzero;"/>
                <path d="M245,185C211.916,185 185,211.916 185,245C185,278.084 211.916,305 245,305C278.084,305 305,278.084 305,245C305,211.916 278.084,185 245,185ZM245,285C222.944,285 205,267.056 205,245C205,222.944 222.944,205 245,205C267.056,205 285,222.944 285,245C285,267.056 267.056,285 245,285Z" style="fill:rgb(35,31,32);fill-rule:nonzero;"/>
            </g>
        </g>
    </g>
</svg>
