<?xml version="1.0" encoding="UTF-8" standalone="no"?>
<!DOCTYPE svg PUBLIC "-//W3C//DTD SVG 1.1//EN" "http://www.w3.org/Graphics/SVG/1.1/DTD/svg11.dtd">
<svg width="100%" height="100%" viewBox="0 0 10667 1667" version="1.1" xmlns="http://www.w3.org/2000/svg" xmlns:xlink="http://www.w3.org/1999/xlink" xml:space="preserve" xmlns:serif="http://www.serif.com/" style="fill-rule:evenodd;clip-rule:evenodd;stroke-linejoin:round;stroke-miterlimit:2;">
    <g transform="matrix(1.48602,0,0,0.847218,-2132.44,321.284)">
        <path d="M1435,1224C1554.94,1222.2 1680.01,1167.03 1804,1058C1953.88,913.746 2095.12,756.141 2294,701C2420.27,658.025 2576.36,656.996 2703.84,764.441C2810.48,854.32 2849.36,908.888 2984,1045C3073.18,1108.48 3168.29,1073.85 3278.22,914.255C3386.28,757.369 3592.86,471.26 3700,444C3769.92,414.975 3854.18,428.277 3951.35,453.781C4003.99,467.597 4095.29,529.492 4275,662C4360.23,735.34 4492.33,759.219 4647.97,684.345C4924.84,551.147 5100.46,332.364 5453,196.064C5826.57,63.6 6206.74,212.814 6368.99,389.874C6555.75,593.686 6540.02,616.214 6698,866C6775.56,1002.03 6859.76,1050.37 7006.97,1024.72C7153.43,999.201 7504.65,615.989 7647,556C7864.92,460.488 8069.3,718.983 8230,885C8347.78,1016.42 8522.28,1231.32 8615.02,1224.06L8613,1588L1435,1588L1435,1095.41" style="fill:rgb(35,35,39);"/>
    </g>
</svg>
